<svg width="154" height="38" viewBox="0 0 154 38" fill="none" xmlns="http://www.w3.org/2000/svg">
<g filter="url(#filter0_dd_1246_6967)">
<path d="M31.889 27.0222C31.9001 27.0045 31.9089 26.9847 31.9178 26.967C31.9266 26.9471 31.9377 26.9272 31.9465 26.9073C31.9576 26.883 31.9664 26.8587 31.9752 26.8344C31.9841 26.8123 31.9907 26.7902 31.9973 26.7658C31.9973 26.7592 32.0018 26.7526 32.0018 26.7459C32.0062 26.7283 32.0106 26.7128 32.015 26.6951C32.015 26.6885 32.0172 26.6819 32.0194 26.6752C32.0239 26.6509 32.0283 26.6288 32.0327 26.6045C32.0393 26.5514 32.0438 26.4984 32.0438 26.4431V3.18247C32.0438 3.18247 32.0438 3.17363 32.0438 3.17142C32.0438 3.14932 32.0438 3.12942 32.0438 3.10953C32.0438 3.1029 32.0438 3.09406 32.0438 3.08743C32.0438 3.07859 32.0438 3.06975 32.0415 3.06091C32.0415 3.05207 32.0415 3.04323 32.0393 3.03438C32.0393 3.02554 32.0393 3.01891 32.0371 3.01007C32.0349 2.99018 32.0305 2.97029 32.0283 2.9526C32.0283 2.94818 32.0283 2.94376 32.0261 2.93934C32.0217 2.91503 32.015 2.89293 32.0106 2.87083C32.0106 2.86419 32.0062 2.85977 32.0062 2.85314C32.0018 2.83988 31.9995 2.82883 31.9951 2.81557C31.9951 2.81115 31.9929 2.80673 31.9907 2.80231C31.9885 2.79568 31.9863 2.78684 31.9841 2.78021C31.9774 2.76473 31.973 2.74705 31.9664 2.73158C31.9642 2.72495 31.962 2.72053 31.9598 2.7139C31.9531 2.70064 31.9465 2.68737 31.9421 2.67411C31.9377 2.66748 31.9355 2.65864 31.931 2.65201C31.931 2.64759 31.9266 2.64317 31.9244 2.63875C31.9244 2.63875 31.9244 2.63433 31.9222 2.63212C31.9156 2.61886 31.9067 2.60339 31.9001 2.59012C31.8957 2.58349 31.8935 2.57686 31.889 2.57023C31.8802 2.55697 31.8714 2.54371 31.8647 2.53045C31.8603 2.52382 31.8581 2.5194 31.8537 2.51277C31.8448 2.4995 31.836 2.48845 31.8272 2.47519C31.8227 2.47077 31.8205 2.46414 31.8161 2.45972C31.8161 2.45972 31.8161 2.45972 31.8161 2.45751C31.8028 2.43983 31.7896 2.42436 31.7741 2.40888C31.7697 2.40446 31.7653 2.39783 31.7608 2.39341C31.7608 2.39341 31.7586 2.38899 31.7564 2.38899C31.7476 2.38015 31.7387 2.3691 31.7299 2.36026C31.7255 2.35584 31.7188 2.34921 31.7144 2.34479C31.7012 2.33152 31.6879 2.32047 31.6746 2.30721C31.6702 2.305 31.668 2.30058 31.6658 2.29837C31.6658 2.29837 31.6614 2.29616 31.6614 2.29395C31.6459 2.28069 31.6304 2.26743 31.615 2.25638C31.6105 2.25196 31.6039 2.24975 31.5995 2.24532C31.5862 2.23648 31.573 2.22543 31.5597 2.21659C31.5531 2.21217 31.5464 2.20775 31.542 2.20333C31.5288 2.19449 31.5155 2.18565 31.5 2.17681C31.4956 2.1746 31.489 2.17018 31.4846 2.16797C31.4735 2.16134 31.4625 2.15691 31.4536 2.15028C31.4448 2.14586 31.4359 2.14144 31.4271 2.13702C31.4227 2.13702 31.4183 2.1326 31.4138 2.13039C31.4028 2.12597 31.3939 2.11934 31.3829 2.11492C31.3785 2.11271 31.3718 2.1105 31.3674 2.10608C31.3608 2.10387 31.3542 2.09945 31.3475 2.09724C31.3321 2.09061 31.3188 2.08398 31.3033 2.07956C31.2967 2.07735 31.2901 2.07514 31.2834 2.07293C31.2724 2.0685 31.2635 2.06629 31.2525 2.06187C31.2414 2.05745 31.2304 2.05524 31.2193 2.05082C31.2193 2.05082 31.2193 2.05082 31.2171 2.05082C31.2039 2.0464 31.1906 2.04419 31.1773 2.03977C31.1685 2.03977 31.1619 2.03535 31.153 2.03314C31.1464 2.03314 31.1398 2.03093 31.1331 2.02872C31.1177 2.0243 31.1022 2.02209 31.0867 2.01988C31.0801 2.01988 31.0735 2.01767 31.0646 2.01546C31.0558 2.01546 31.0447 2.01325 31.0359 2.01104C31.027 2.01104 31.0182 2.00883 31.0094 2.00662C31.0049 2.00662 31.0005 2.00662 30.9983 2.00662C30.9762 2.00441 30.9541 2.0022 30.932 2.0022C30.9254 2.0022 30.9187 2.0022 30.9143 2.0022C30.8988 2.0022 30.8834 2.0022 30.8657 2.0022C30.8657 2.0022 30.8436 2.0022 30.8325 2.0022C30.8193 2.0022 30.806 2.0022 30.7905 2.00441C30.7795 2.00441 30.7684 2.00441 30.7574 2.00662C30.7463 2.00662 30.7353 2.00883 30.7242 2.01104C30.722 2.01104 30.7176 2.01104 30.7154 2.01104C30.7043 2.01104 30.6933 2.01325 30.6822 2.01546C30.669 2.01767 30.6535 2.01988 30.6402 2.0243C30.6292 2.0243 30.6181 2.02872 30.6093 2.03093C30.596 2.03535 30.5806 2.03756 30.5673 2.04198C30.5563 2.04419 30.5474 2.04861 30.5364 2.05082C30.5253 2.05303 30.5165 2.05745 30.5054 2.06187C30.501 2.06187 30.4966 2.06408 30.4922 2.06629C30.4833 2.07072 30.4723 2.07293 30.4634 2.07735C30.448 2.08398 30.4325 2.09061 30.417 2.09724C30.4082 2.10166 30.4015 2.10387 30.3927 2.10829C30.3684 2.11934 30.3441 2.13039 30.322 2.14365L24.9422 5.03687V8.38761L27.3713 7.08135C28.1581 6.65919 29.1108 7.22723 29.1108 8.12017V24.6772C29.1108 25.1126 28.872 25.5104 28.4897 25.716L19.5802 30.5078C19.2309 30.6957 18.811 30.6957 18.4618 30.5078L9.55225 25.716C9.16988 25.5104 8.93117 25.1104 8.93117 24.6772V23.1477L6.19488 21.6668C6.11974 21.627 6.04901 21.5806 5.98049 21.532V26.4409H5.95618C5.95618 26.4652 5.95618 26.4896 5.95839 26.5139C5.95839 26.5205 5.95839 26.5271 5.95839 26.536C5.95839 26.5537 5.9606 26.5713 5.96281 26.589C5.96281 26.5957 5.96281 26.6023 5.96502 26.6111C5.97607 26.6885 5.99375 26.7614 6.02027 26.8344C6.02911 26.8587 6.03796 26.883 6.04901 26.9073C6.05785 26.9294 6.0689 26.9493 6.07995 26.9714C6.08216 26.978 6.08658 26.9847 6.08879 26.9891C6.09763 27.0045 6.10647 27.02 6.1131 27.0355C6.11752 27.0421 6.11974 27.0465 6.12416 27.0532C6.14847 27.093 6.17499 27.1327 6.20372 27.1703C6.20815 27.1747 6.21257 27.1814 6.21699 27.1858C6.22804 27.199 6.23909 27.2123 6.25014 27.2256C6.25456 27.23 6.25898 27.2366 6.2634 27.241C6.35181 27.3361 6.45348 27.4179 6.57063 27.4797L18.433 33.8585C18.433 33.8585 18.433 33.8585 18.4352 33.8585C18.4573 33.8696 18.4772 33.8806 18.4993 33.8917C18.5214 33.9027 18.5436 33.9116 18.5679 33.9204C18.59 33.9293 18.6143 33.9381 18.6386 33.9447C18.6386 33.9447 18.6386 33.9447 18.6408 33.9447C18.6629 33.9514 18.6872 33.958 18.7093 33.9646C18.7579 33.9757 18.8044 33.9845 18.853 33.9911C18.8751 33.9934 18.8994 33.9956 18.9215 33.9978C19.1359 34.011 19.3547 33.9646 19.5492 33.8585L31.4116 27.4797C31.4359 27.4665 31.458 27.4532 31.4801 27.44C31.4912 27.4333 31.5022 27.4267 31.5111 27.4179C31.5221 27.4112 31.5332 27.4046 31.5442 27.3958C31.5575 27.3847 31.5708 27.3759 31.5862 27.3648C31.5929 27.3604 31.5995 27.356 31.6061 27.3493C31.6216 27.3361 31.6371 27.3228 31.6525 27.3096C31.657 27.3074 31.6592 27.3029 31.6636 27.3007C31.6791 27.2852 31.6967 27.2698 31.7122 27.2521C31.7122 27.2521 31.7144 27.2477 31.7166 27.2477C31.7321 27.23 31.7498 27.2123 31.7653 27.1946C31.7962 27.1571 31.8272 27.1151 31.8537 27.0731C31.8647 27.0576 31.8736 27.0399 31.8846 27.0222H31.889Z" fill="url(#paint0_linear_1246_6967)"/>
<path d="M22.8734 2C22.8734 2 22.8513 2 22.8403 2C22.8403 2 22.8359 2 22.8336 2C22.8226 2 22.8115 2 22.7983 2C22.7872 2 22.7762 2 22.7651 2.00221C22.7519 2.00221 22.7386 2.00442 22.7231 2.00663C22.7121 2.00663 22.701 2.00884 22.69 2.01105C22.6767 2.01105 22.6657 2.01547 22.6524 2.01768C22.6524 2.01768 22.6502 2.01768 22.648 2.01768C22.6369 2.01989 22.6259 2.0221 22.617 2.02431C22.6082 2.02431 22.6016 2.02873 22.5927 2.03094C22.5861 2.03094 22.5817 2.03315 22.575 2.03536C22.564 2.03757 22.5552 2.04199 22.5441 2.04421C22.5353 2.04642 22.5264 2.05084 22.5198 2.05305C22.5132 2.05305 22.5065 2.05747 22.4999 2.05968C22.4911 2.06189 22.4822 2.06631 22.4734 2.06852C22.4734 2.06852 22.4734 2.06852 22.4712 2.06852C22.4623 2.07073 22.4557 2.07515 22.4469 2.07957C22.438 2.08178 22.4314 2.0862 22.4225 2.08841C22.4181 2.08841 22.4159 2.09062 22.4115 2.09283C22.4071 2.09283 22.4026 2.09725 22.3982 2.09946C22.385 2.10609 22.3717 2.11272 22.3584 2.11935C22.3496 2.12377 22.3385 2.12819 22.3297 2.13483L18.2452 4.33181V7.68255L19.379 7.07252C19.8631 6.81171 20.4112 6.92886 20.7604 7.26482C20.7737 7.27587 20.7847 7.28913 20.798 7.30239C20.798 7.3046 20.8024 7.30681 20.8046 7.30902C20.8422 7.34881 20.8754 7.3908 20.9085 7.435C20.9085 7.435 20.9085 7.43501 20.9085 7.43722C20.9174 7.45048 20.9262 7.46153 20.9328 7.47479C20.9373 7.48142 20.9395 7.48584 20.9439 7.49247C20.9505 7.50352 20.9594 7.51678 20.966 7.52784C20.9704 7.53447 20.9748 7.5411 20.977 7.54994C20.9859 7.56762 20.9969 7.5853 21.0036 7.60519C21.0102 7.61625 21.0146 7.62951 21.019 7.64056C21.0235 7.65161 21.0279 7.66045 21.0323 7.6715C21.0367 7.68255 21.0411 7.6936 21.0456 7.70687C21.05 7.71571 21.0522 7.72676 21.0566 7.7356C21.061 7.74886 21.0654 7.76212 21.0699 7.77538C21.0721 7.78422 21.0743 7.79307 21.0765 7.80191C21.0831 7.82401 21.0875 7.84611 21.092 7.86821C21.092 7.87484 21.092 7.87926 21.0942 7.8859C21.0986 7.90358 21.1008 7.92126 21.103 7.93894C21.103 7.94778 21.103 7.95441 21.1052 7.96325C21.1052 7.98094 21.1096 7.99641 21.1096 8.01409C21.1096 8.02072 21.1096 8.02956 21.1096 8.03619C21.1096 8.06051 21.1119 8.08482 21.1119 8.11134V18.1127C21.1119 18.5459 20.8732 18.946 20.493 19.1515L15.5686 21.8149C15.2171 22.005 14.795 22.005 14.4457 21.8149L9.52131 19.1515C9.13894 18.946 8.90244 18.5459 8.90244 18.1127V16.749L6.17499 15.288C6.09763 15.246 6.02469 15.2018 5.95618 15.151V15.94V19.8809C5.95618 20.3141 6.19488 20.7142 6.57505 20.9197L8.90686 22.1818L14.4502 25.1811C14.4833 25.1988 14.5187 25.2143 14.554 25.2297C14.6756 25.2806 14.8038 25.3115 14.9342 25.3203C14.9607 25.3203 14.9873 25.3226 15.0138 25.3226C15.0403 25.3226 15.0668 25.3226 15.0933 25.3203C15.2039 25.3137 15.3144 25.2894 15.4205 25.2496C15.4735 25.2297 15.5266 25.2076 15.5752 25.1789L23.4525 20.9175C23.8349 20.712 24.0714 20.3119 24.0714 19.8787V3.18248C24.0714 3.15817 24.0714 3.13386 24.0692 3.10955C24.0692 3.10291 24.0692 3.09407 24.0692 3.08744C24.0692 3.08302 24.0692 3.0786 24.0692 3.07418C24.0692 3.06092 24.067 3.04766 24.0648 3.0344C24.0648 3.02556 24.0648 3.01893 24.0625 3.01008C24.0603 2.99019 24.0559 2.9703 24.0537 2.95262C24.0537 2.95262 24.0537 2.9482 24.0537 2.94599C24.0537 2.94378 24.0537 2.94157 24.0537 2.93936C24.0515 2.92831 24.0493 2.91725 24.0449 2.9062C24.0427 2.89515 24.0404 2.88189 24.036 2.87084C24.036 2.86421 24.0316 2.85758 24.0316 2.85316C24.0272 2.83547 24.0228 2.82 24.0161 2.80453C24.0139 2.7979 24.0117 2.78906 24.0095 2.78243C24.0029 2.76696 23.9984 2.75148 23.9918 2.7338C23.9896 2.72717 23.9874 2.72275 23.9852 2.71612C23.9763 2.69623 23.9675 2.67413 23.9565 2.65423C23.9565 2.64981 23.952 2.64539 23.9498 2.64097C23.9432 2.6255 23.9344 2.61224 23.9255 2.59898C23.9255 2.59898 23.9255 2.59677 23.9233 2.59456C23.9189 2.58793 23.9167 2.58351 23.9122 2.57688C23.9056 2.56361 23.8968 2.55256 23.8879 2.5393C23.8879 2.5393 23.8879 2.5393 23.8879 2.53709C23.8835 2.53267 23.8813 2.52604 23.8769 2.52162C23.8703 2.51057 23.8636 2.50173 23.8548 2.49289C23.8482 2.48404 23.8437 2.47741 23.8371 2.46857C23.8371 2.46857 23.8371 2.46857 23.8349 2.46636C23.8216 2.44868 23.8084 2.43321 23.7951 2.41774C23.7907 2.41332 23.7863 2.40669 23.7818 2.40227C23.7708 2.39121 23.7597 2.38016 23.7487 2.3669C23.7443 2.36248 23.7376 2.35585 23.7332 2.35143C23.7266 2.3448 23.72 2.34038 23.7133 2.33375C23.7067 2.32712 23.7001 2.32049 23.6934 2.31607C23.689 2.31386 23.6868 2.30944 23.6846 2.30722C23.6691 2.29175 23.6514 2.27849 23.6338 2.26523C23.6293 2.26081 23.6249 2.2586 23.6205 2.25418C23.6072 2.24534 23.594 2.23429 23.5807 2.22545C23.5785 2.22545 23.5741 2.22103 23.5719 2.21881C23.5674 2.2166 23.5652 2.21439 23.5608 2.21218C23.5542 2.20776 23.5498 2.20555 23.5431 2.20113C23.5343 2.19671 23.5277 2.19008 23.5188 2.18566C23.5144 2.18345 23.5078 2.17903 23.5034 2.17682C23.4879 2.16798 23.4724 2.15914 23.4569 2.1503C23.4525 2.1503 23.4503 2.14588 23.4459 2.14367C23.4415 2.14367 23.437 2.13925 23.4326 2.13704C23.4172 2.12819 23.4017 2.12156 23.384 2.11493C23.3818 2.11493 23.3774 2.11272 23.3752 2.11051C23.3707 2.11051 23.3685 2.1083 23.3641 2.10609C23.3486 2.09946 23.3354 2.09283 23.3199 2.08841C23.3133 2.0862 23.3066 2.08399 23.3 2.08178C23.2934 2.07957 23.2845 2.07736 23.2779 2.07515C23.2646 2.07073 23.2514 2.06631 23.2381 2.06189C23.2381 2.06189 23.2381 2.06189 23.2359 2.06189C23.2337 2.06189 23.2293 2.06189 23.2271 2.05968C23.2094 2.05526 23.1917 2.05084 23.174 2.04642C23.1674 2.04642 23.1608 2.0442 23.1541 2.04199C23.1387 2.03757 23.1232 2.03536 23.1077 2.03315C23.1011 2.03315 23.0945 2.03094 23.0856 2.02873C23.0679 2.02652 23.048 2.02431 23.0304 2.0221C23.0259 2.0221 23.0215 2.0221 23.0193 2.0221C22.9972 2.01989 22.9751 2.01768 22.953 2.01768C22.9464 2.01768 22.9397 2.01768 22.9353 2.01768C22.9198 2.01768 22.9044 2.01768 22.8867 2.01768L22.8734 2Z" fill="url(#paint1_linear_1246_6967)"/>
<path d="M6.13298 7.44378C6.13298 7.44378 6.12414 7.45704 6.11972 7.46367C6.09541 7.50567 6.0711 7.54987 6.05341 7.59629C6.0512 7.60292 6.04678 7.61176 6.04457 7.61839C6.03794 7.63386 6.03131 7.64933 6.02689 7.66481C6.02468 7.67365 6.02026 7.68249 6.01805 7.69133C6.01363 7.7068 6.00921 7.72006 6.00479 7.73553C6.00258 7.74438 6.00037 7.75543 5.99595 7.76427C5.99153 7.77974 5.98932 7.793 5.9849 7.80847C5.9849 7.81731 5.98048 7.82836 5.97827 7.83721C5.97606 7.85268 5.97164 7.86815 5.96943 7.88362C5.96943 7.89246 5.96722 7.90351 5.965 7.91235C5.965 7.93004 5.96058 7.94551 5.96058 7.96319C5.96058 7.97203 5.96058 7.97866 5.96058 7.9875C5.96058 8.01182 5.95837 8.03834 5.95837 8.06486V13.4999C5.95837 13.9353 6.19708 14.3331 6.57945 14.5387L11.1193 16.981C11.2939 17.0738 11.4862 17.1225 11.6785 17.1225C11.8708 17.1225 12.0631 17.076 12.2377 16.981L16.7775 14.5387C16.8262 14.5122 16.8704 14.4834 16.9146 14.4525C16.9588 14.4215 16.9986 14.3862 17.0361 14.3508C17.1047 14.2845 17.1666 14.2094 17.2174 14.1276C17.3345 13.9419 17.3986 13.7253 17.3986 13.4977V4.7959V3.83002V3.18021C17.3986 3.16032 17.3986 3.14042 17.3986 3.12053C17.3986 3.11611 17.3986 3.10948 17.3986 3.10506C17.3986 3.09843 17.3986 3.08959 17.3986 3.08296C17.3986 3.07412 17.3986 3.06307 17.3964 3.05422C17.3964 3.04759 17.3964 3.03875 17.3942 3.03212C17.3942 3.02549 17.3942 3.02107 17.392 3.01444C17.392 3.01444 17.392 3.01002 17.392 3.00781C17.3898 2.98792 17.3854 2.97023 17.3832 2.95034C17.3832 2.94592 17.3832 2.9415 17.3809 2.93708C17.3765 2.91498 17.3721 2.89288 17.3655 2.87298C17.3655 2.87298 17.3655 2.87077 17.3655 2.86856C17.3655 2.86193 17.3611 2.8553 17.3611 2.85088C17.3611 2.84646 17.3588 2.84425 17.3566 2.83983C17.3522 2.82657 17.35 2.81331 17.3456 2.80226C17.3434 2.79563 17.3412 2.78678 17.339 2.78015C17.3323 2.76468 17.3279 2.74921 17.3213 2.73153C17.3213 2.73153 17.3213 2.72711 17.3191 2.72711C17.3191 2.72269 17.3168 2.71827 17.3146 2.71606C17.3102 2.70722 17.3058 2.69616 17.3014 2.68732C17.297 2.67627 17.2925 2.66522 17.2859 2.65417C17.2859 2.65417 17.2837 2.64975 17.2815 2.64754C17.2815 2.64754 17.2793 2.64312 17.2793 2.64091C17.2704 2.62544 17.2638 2.60996 17.255 2.59449C17.2505 2.58786 17.2483 2.58123 17.2439 2.5746C17.2373 2.56355 17.2306 2.5525 17.2218 2.54145C17.2218 2.54145 17.2196 2.53703 17.2174 2.53482C17.2174 2.53482 17.2174 2.53261 17.2152 2.5304C17.213 2.52597 17.2085 2.52155 17.2063 2.51713C17.1931 2.49945 17.182 2.48177 17.1666 2.46409C17.1666 2.46409 17.1666 2.46409 17.1643 2.46188C17.1621 2.45746 17.1577 2.45525 17.1555 2.45083C17.1444 2.43756 17.1356 2.4243 17.1246 2.41325C17.1223 2.41104 17.1201 2.40662 17.1179 2.40441C17.1157 2.4022 17.1135 2.39999 17.1113 2.39778C17.1113 2.39778 17.1091 2.39557 17.1069 2.39336C17.098 2.38231 17.0892 2.37347 17.0781 2.36463C17.0737 2.36021 17.0693 2.35579 17.0649 2.35136C17.0605 2.34694 17.0538 2.34252 17.0494 2.33589C17.0428 2.32926 17.0339 2.32042 17.0273 2.31379C17.0251 2.31379 17.0229 2.30937 17.0207 2.30716C17.0207 2.30716 17.0207 2.30716 17.0185 2.30495C17.003 2.28948 16.9853 2.27622 16.9676 2.26295C16.9654 2.26074 16.961 2.25853 16.9588 2.25632C16.9588 2.25632 16.9544 2.25411 16.9544 2.2519C16.9411 2.24306 16.9278 2.23201 16.9146 2.22317C16.908 2.21875 16.9013 2.21433 16.8969 2.20991C16.8836 2.20107 16.8704 2.19223 16.8549 2.18339C16.8505 2.18118 16.8439 2.17676 16.8394 2.17454C16.824 2.1657 16.8063 2.15465 16.7886 2.14581C16.7864 2.14581 16.7842 2.1436 16.782 2.14139C16.7775 2.14139 16.7731 2.13697 16.7687 2.13476C16.7687 2.13476 16.7665 2.13476 16.7643 2.13255C16.751 2.12592 16.7356 2.11929 16.7223 2.11266C16.7157 2.11045 16.709 2.10603 16.7024 2.10382C16.6869 2.09719 16.6737 2.09056 16.6582 2.08613C16.6538 2.08613 16.6494 2.08171 16.6449 2.08171C16.6449 2.08171 16.6405 2.08171 16.6383 2.0795C16.6317 2.0795 16.6273 2.07508 16.6206 2.07287C16.6051 2.06845 16.5897 2.06182 16.5742 2.0574C16.5742 2.0574 16.5742 2.0574 16.572 2.0574C16.5521 2.05077 16.53 2.04635 16.5101 2.03972C16.5035 2.03972 16.4968 2.03751 16.4902 2.0353C16.4747 2.03088 16.4593 2.02867 16.4438 2.02646C16.4372 2.02646 16.4305 2.02425 16.4217 2.02204C16.404 2.01983 16.3841 2.01762 16.3664 2.01541C16.3664 2.01541 16.3642 2.01541 16.362 2.01541C16.3598 2.01541 16.3576 2.01541 16.3554 2.01541C16.3532 2.01541 16.351 2.01541 16.3465 2.01541C16.3267 2.01541 16.3068 2.01099 16.2869 2.01099C16.2825 2.01099 16.2758 2.01099 16.2714 2.01099C16.2714 2.01099 16.2714 2.01099 16.2692 2.01099C16.2537 2.01099 16.236 2.01099 16.2206 2.01099C16.2139 2.01099 16.2095 2.01099 16.2029 2.01099C16.1985 2.01099 16.1918 2.01099 16.1874 2.01099C16.1741 2.01099 16.1609 2.01099 16.1454 2.0132C16.141 2.0132 16.1366 2.0132 16.1344 2.0132C16.1277 2.0132 16.1211 2.0132 16.1145 2.0132C16.1012 2.0132 16.0879 2.01541 16.0725 2.01762C16.0658 2.01762 16.0614 2.01762 16.0548 2.01983C16.0504 2.01983 16.0437 2.01983 16.0393 2.02204C16.0305 2.02204 16.0216 2.02425 16.015 2.02646C16.0084 2.02646 16.004 2.02646 15.9973 2.02867C15.9885 2.02867 15.9796 2.03309 15.9708 2.0353C15.9708 2.0353 15.9686 2.0353 15.9664 2.0353C15.9553 2.03751 15.9443 2.04193 15.9332 2.04414C15.931 2.04414 15.9266 2.04414 15.9244 2.04635C15.9133 2.04856 15.9045 2.05298 15.8934 2.05519C15.8846 2.0574 15.8736 2.06182 15.8647 2.06403C15.8603 2.06403 15.8559 2.06624 15.8492 2.06845C15.8404 2.07287 15.8294 2.07508 15.8205 2.0795C15.805 2.08613 15.7874 2.09277 15.7719 2.0994C15.7675 2.0994 15.763 2.10382 15.7564 2.10603C15.7542 2.10603 15.7498 2.10824 15.7476 2.11045C15.7432 2.11266 15.7365 2.11487 15.7321 2.11929C15.7144 2.12813 15.6945 2.13697 15.6768 2.14581L6.57724 7.02383C6.55293 7.0371 6.53083 7.05036 6.50652 7.06362C6.48441 7.07688 6.46231 7.09235 6.44021 7.10782C6.42916 7.11666 6.41811 7.1255 6.40705 7.13435C6.39821 7.14098 6.38937 7.14761 6.38053 7.15424C6.3739 7.15866 6.36727 7.16529 6.36285 7.16971C6.34959 7.18076 6.33854 7.19181 6.32528 7.20286C6.31864 7.20949 6.31201 7.21613 6.30538 7.22276C6.29433 7.23381 6.28328 7.24486 6.27223 7.25591C6.2656 7.26254 6.25897 7.27138 6.25234 7.27801C6.2435 7.28685 6.23687 7.2979 6.22802 7.30675C6.22802 7.30675 6.22581 7.31117 6.2236 7.31338C6.21697 7.32001 6.21034 7.32885 6.20592 7.33769C6.19708 7.34874 6.18824 7.362 6.1794 7.37526C6.17498 7.38189 6.16835 7.39074 6.16393 7.39737C6.16393 7.39737 6.16172 7.40179 6.15951 7.404C6.15067 7.41505 6.14404 7.42831 6.13519 7.44157L6.13298 7.44378ZM8.90685 9.82864C8.90685 9.80212 8.90685 9.77781 8.90906 9.75128C8.90906 9.74244 8.90906 9.73581 8.91127 9.72697C8.91127 9.70929 8.91348 9.69382 8.91569 9.67613C8.91569 9.66729 8.9179 9.65624 8.92011 9.6474C8.92232 9.63193 8.92453 9.61646 8.92895 9.60099C8.92895 9.58993 8.93337 9.58109 8.93558 9.57225C8.93779 9.55678 8.94221 9.54352 8.94663 9.52805C8.94884 9.51921 8.95105 9.50815 8.95547 9.49931C8.95989 9.48384 8.96431 9.47058 8.96873 9.45511C8.97094 9.44627 8.97537 9.43743 8.97758 9.42859C8.98421 9.41311 8.98863 9.39764 8.99526 9.38217C8.99747 9.37554 9.00189 9.3667 9.0041 9.36007C9.01294 9.33797 9.02399 9.31586 9.03504 9.29597C9.03504 9.29597 9.03504 9.29597 9.03504 9.29376C9.14334 9.08379 9.31132 8.90697 9.52793 8.79203L12.7041 7.08351C12.9295 6.96195 13.1704 6.92216 13.3959 6.94869C13.4268 6.95311 13.4578 6.95753 13.4887 6.96416C13.4953 6.96416 13.502 6.96637 13.5064 6.96858C13.5196 6.97079 13.5329 6.97521 13.5462 6.97742C13.5528 6.97742 13.5572 6.97963 13.5638 6.98184C13.5904 6.98847 13.6147 6.99731 13.639 7.00394C13.6434 7.00394 13.6478 7.00615 13.6523 7.00836C13.6655 7.01278 13.6766 7.0172 13.6898 7.02383C13.6965 7.02604 13.7031 7.02825 13.7097 7.03267C13.723 7.0371 13.734 7.04373 13.7473 7.04815C13.7495 7.04815 13.7539 7.05036 13.7561 7.05257C13.7804 7.06362 13.8026 7.07467 13.8269 7.08793C13.8335 7.09235 13.8423 7.09677 13.849 7.10119C13.86 7.10782 13.8711 7.11445 13.8799 7.11887C13.8888 7.12329 13.8954 7.12993 13.9042 7.13435C13.9197 7.1454 13.9352 7.15424 13.9506 7.16529C13.9595 7.17192 13.9683 7.17855 13.9772 7.18518C13.986 7.19181 13.9948 7.19844 14.0037 7.20507C14.0125 7.2117 14.0214 7.21834 14.028 7.22718C14.0368 7.23381 14.0435 7.24044 14.0523 7.24707C14.0656 7.26033 14.081 7.27359 14.0943 7.28685C14.1009 7.29348 14.1076 7.30012 14.112 7.30675C14.1208 7.31559 14.1297 7.32443 14.1385 7.33548C14.1451 7.34211 14.1518 7.34874 14.1562 7.35537C14.1672 7.36642 14.1761 7.37968 14.1871 7.39074C14.1916 7.39737 14.1982 7.404 14.2026 7.41063C14.2137 7.4261 14.2247 7.43936 14.2358 7.45483C14.2402 7.46146 14.2446 7.46809 14.249 7.47472C14.2579 7.48799 14.2667 7.50125 14.2733 7.51451C14.2778 7.52114 14.28 7.52556 14.2844 7.53219C14.2954 7.54987 14.3043 7.56977 14.3153 7.58745C14.3175 7.59187 14.3197 7.5985 14.3242 7.60292C14.3308 7.61839 14.3396 7.63386 14.3463 7.64933C14.3485 7.65596 14.3529 7.6626 14.3551 7.66923C14.364 7.68912 14.3706 7.70901 14.3772 7.7289C14.3772 7.7289 14.3772 7.73111 14.3772 7.73332C14.3838 7.75543 14.3905 7.77753 14.3971 7.79742C14.3971 7.80405 14.4015 7.81068 14.4015 7.81731C14.4059 7.835 14.4104 7.85268 14.4148 7.87036C14.4148 7.87478 14.417 7.88141 14.4192 7.88583C14.4236 7.90793 14.4281 7.93225 14.4303 7.95435C14.4303 7.95877 14.4303 7.9654 14.4303 7.96982C14.4325 7.98971 14.4347 8.00739 14.4369 8.02729C14.4369 8.03392 14.4369 8.04055 14.4369 8.04718C14.4369 8.07149 14.4391 8.09581 14.4391 8.12012V11.7339C14.4391 12.1693 14.2004 12.5671 13.818 12.7727L12.2311 13.6258C11.8818 13.8137 11.4619 13.8137 11.1127 13.6258L9.52572 12.7727C9.42626 12.7196 9.33564 12.6511 9.25828 12.5738C9.23396 12.5495 9.21186 12.5251 9.18976 12.5008C9.18534 12.4942 9.18092 12.4898 9.17429 12.4832C9.16545 12.4721 9.15661 12.461 9.14776 12.45C9.14334 12.4434 9.13671 12.4367 9.13229 12.4301C9.11461 12.4058 9.09693 12.3793 9.08146 12.355C9.08146 12.3527 9.07925 12.3505 9.07704 12.3483C9.07041 12.3373 9.06378 12.3262 9.05935 12.3152C9.05493 12.3063 9.0483 12.2975 9.04388 12.2864C9.03725 12.2754 9.03283 12.2643 9.02841 12.2555C9.02178 12.2444 9.01736 12.2334 9.01294 12.2223C9.00852 12.2135 9.0041 12.2047 8.99968 12.1936C8.99084 12.1737 8.98421 12.1538 8.97537 12.1339C8.97315 12.1251 8.96873 12.1163 8.96652 12.1074C8.9621 12.0941 8.95768 12.0787 8.95326 12.0654C8.95105 12.0566 8.94884 12.0477 8.94663 12.0389C8.94221 12.0212 8.93779 12.0035 8.93337 11.9836C8.93337 11.9792 8.93116 11.9748 8.93116 11.9704C8.92674 11.9483 8.92232 11.924 8.92011 11.9019C8.92011 11.8952 8.92011 11.8886 8.9179 11.8798C8.91569 11.8621 8.91348 11.8444 8.91348 11.8267C8.91348 11.8201 8.91348 11.8134 8.91348 11.8046C8.91348 11.7803 8.91127 11.756 8.91127 11.7317V9.82643L8.90685 9.82864Z" fill="url(#paint2_linear_1246_6967)"/>
</g>
<path d="M144.588 25.6801V10.3201H145.815V24.4854H153.282V25.6801H144.588Z" fill="white"/>
<path d="M126.645 25.6801L132.085 10.3201H133.61L139.05 25.6801H137.749L132.522 10.9601H133.141L127.946 25.6801H126.645ZM128.896 21.8187V20.6561H136.789V21.8187H128.896Z" fill="white"/>
<path d="M116.272 25.6801V11.5147H110.768V10.3201H123.003V11.5147H117.499V25.6801H116.272Z" fill="white"/>
<path d="M100.997 26C99.9446 26 98.9953 25.8258 98.149 25.4773C97.3099 25.1289 96.6131 24.6347 96.0584 23.9947C95.5108 23.3547 95.1446 22.5938 94.9597 21.712L96.2184 21.4987C96.4815 22.5227 97.0433 23.3298 97.9037 23.92C98.7713 24.5102 99.813 24.8053 101.029 24.8053C101.854 24.8053 102.583 24.6738 103.216 24.4107C103.849 24.1476 104.343 23.7778 104.698 23.3013C105.054 22.8178 105.232 22.256 105.232 21.616C105.232 21.1538 105.146 20.7662 104.976 20.4533C104.812 20.1404 104.599 19.8844 104.336 19.6853C104.073 19.4791 103.792 19.3156 103.493 19.1947C103.194 19.0667 102.913 18.9636 102.65 18.8853L98.7891 17.7333C98.2771 17.584 97.8184 17.3991 97.4131 17.1787C97.0148 16.9511 96.6771 16.6916 96.3997 16.4C96.1295 16.1013 95.9197 15.7636 95.7704 15.3867C95.6282 15.0098 95.5571 14.5902 95.5571 14.128C95.5571 13.3031 95.7775 12.5813 96.2184 11.9627C96.6593 11.344 97.2637 10.864 98.0317 10.5227C98.8068 10.1742 99.6957 10 100.698 10C101.708 10.0071 102.615 10.1956 103.418 10.5653C104.222 10.928 104.88 11.4436 105.392 12.112C105.911 12.7804 106.245 13.5733 106.394 14.4907L105.125 14.7147C105.025 14.0107 104.769 13.3956 104.357 12.8693C103.952 12.3431 103.433 11.9342 102.8 11.6427C102.167 11.3511 101.463 11.2053 100.688 11.2053C99.941 11.1982 99.2797 11.3227 98.7037 11.5787C98.1348 11.8347 97.6868 12.1796 97.3597 12.6133C97.0326 13.0471 96.869 13.5378 96.869 14.0853C96.869 14.6542 97.0219 15.1093 97.3277 15.4507C97.6406 15.7849 98.021 16.048 98.469 16.24C98.9242 16.432 99.3579 16.5884 99.7704 16.7093L102.864 17.6267C103.155 17.712 103.504 17.8329 103.909 17.9893C104.314 18.1458 104.713 18.3698 105.104 18.6613C105.495 18.9458 105.818 19.3262 106.074 19.8027C106.337 20.272 106.469 20.8622 106.469 21.5733C106.469 22.2631 106.337 22.8818 106.074 23.4293C105.811 23.9769 105.434 24.4427 104.944 24.8267C104.453 25.2036 103.873 25.4916 103.205 25.6907C102.537 25.8969 101.801 26 100.997 26Z" fill="white"/>
<path d="M81.0134 25.6801V10.3201H90.5068V11.5147H82.2401V17.3494H89.2268V18.5441H82.2401V24.4854H90.5068V25.6801H81.0134Z" fill="white"/>
<path d="M64.35 25.6801V10.3201H70.142C70.2913 10.3201 70.4513 10.3272 70.622 10.3414C70.7998 10.3485 70.9846 10.3698 71.1766 10.4054C71.9446 10.5263 72.6024 10.8036 73.15 11.2374C73.7046 11.6641 74.1278 12.2045 74.4193 12.8587C74.7109 13.5058 74.8566 14.2205 74.8566 15.0027C74.8566 16.1334 74.5544 17.1183 73.95 17.9574C73.3455 18.7965 72.5029 19.3298 71.422 19.5574L71.07 19.6961H65.5766V25.6801H64.35ZM73.8113 25.6801L70.782 19.4294L71.9233 18.8534L75.2513 25.6801H73.8113ZM65.5766 18.4907H70.1206C70.2486 18.4907 70.3944 18.4836 70.558 18.4694C70.7286 18.4552 70.8993 18.4338 71.07 18.4054C71.6246 18.2916 72.0869 18.0676 72.4566 17.7334C72.8264 17.3921 73.1038 16.9832 73.2886 16.5067C73.4735 16.0303 73.566 15.529 73.566 15.0027C73.566 14.4765 73.4735 13.9787 73.2886 13.5094C73.1038 13.033 72.8264 12.6276 72.4566 12.2934C72.0869 11.9521 71.6246 11.7245 71.07 11.6107C70.8993 11.5752 70.7286 11.5503 70.558 11.5361C70.3944 11.5218 70.2486 11.5147 70.1206 11.5147H65.5766V18.4907Z" fill="white"/>
<path d="M51.9867 26C50.4578 26 49.1742 25.6622 48.136 24.9867C47.0978 24.304 46.3156 23.3618 45.7893 22.16C45.2631 20.9582 45 19.5716 45 18C45 16.4284 45.2631 15.0418 45.7893 13.84C46.3156 12.6382 47.0978 11.6996 48.136 11.024C49.1742 10.3413 50.4578 10 51.9867 10C53.7716 10 55.2187 10.4622 56.328 11.3867C57.4444 12.3111 58.2018 13.5484 58.6 15.0987L57.3307 15.408C57.0036 14.1209 56.392 13.1004 55.496 12.3467C54.6071 11.5858 53.4373 11.2053 51.9867 11.2053C50.728 11.2053 49.6791 11.4933 48.84 12.0693C48.008 12.6453 47.3787 13.4453 46.952 14.4693C46.5324 15.4933 46.3191 16.6702 46.312 18C46.2978 19.3298 46.5004 20.5067 46.92 21.5307C47.3467 22.5476 47.9831 23.3476 48.8293 23.9307C49.6756 24.5067 50.728 24.7947 51.9867 24.7947C53.4373 24.7947 54.6071 24.4142 55.496 23.6533C56.392 22.8924 57.0036 21.872 57.3307 20.592L58.6 20.9013C58.2018 22.4516 57.4444 23.6889 56.328 24.6133C55.2187 25.5378 53.7716 26 51.9867 26Z" fill="white"/>
<defs>
<filter id="filter0_dd_1246_6967" x="0" y="0" width="38" height="38" filterUnits="userSpaceOnUse" color-interpolation-filters="sRGB">
<feFlood flood-opacity="0" result="BackgroundImageFix"/>
<feColorMatrix in="SourceAlpha" type="matrix" values="0 0 0 0 0 0 0 0 0 0 0 0 0 0 0 0 0 0 127 0" result="hardAlpha"/>
<feOffset dy="1"/>
<feGaussianBlur stdDeviation="1"/>
<feColorMatrix type="matrix" values="0 0 0 0 0.0627451 0 0 0 0 0.0941176 0 0 0 0 0.156863 0 0 0 0.06 0"/>
<feBlend mode="normal" in2="BackgroundImageFix" result="effect1_dropShadow_1246_6967"/>
<feColorMatrix in="SourceAlpha" type="matrix" values="0 0 0 0 0 0 0 0 0 0 0 0 0 0 0 0 0 0 127 0" result="hardAlpha"/>
<feOffset dy="1"/>
<feGaussianBlur stdDeviation="1.5"/>
<feColorMatrix type="matrix" values="0 0 0 0 0.0627451 0 0 0 0 0.0941176 0 0 0 0 0.156863 0 0 0 0.1 0"/>
<feBlend mode="normal" in2="effect1_dropShadow_1246_6967" result="effect2_dropShadow_1246_6967"/>
<feBlend mode="normal" in="SourceGraphic" in2="effect2_dropShadow_1246_6967" result="shape"/>
</filter>
<linearGradient id="paint0_linear_1246_6967" x1="19.9913" y1="15.3733" x2="10.7092" y2="32.1706" gradientUnits="userSpaceOnUse">
<stop stop-color="#007FF4"/>
<stop offset="1" stop-color="#014A8D"/>
</linearGradient>
<linearGradient id="paint1_linear_1246_6967" x1="15.7021" y1="11.7459" x2="8.76582" y2="23.7044" gradientUnits="userSpaceOnUse">
<stop stop-color="#007FF4"/>
<stop offset="1" stop-color="#014A8D"/>
</linearGradient>
<linearGradient id="paint2_linear_1246_6967" x1="12.1132" y1="8.3257" x2="7.56248" y2="15.9727" gradientUnits="userSpaceOnUse">
<stop stop-color="#007FF4"/>
<stop offset="1" stop-color="#014A8D"/>
</linearGradient>
</defs>
</svg>
